<?xml version="1.0" encoding="UTF-8"?>
<svg version="1.1" xmlns="http://www.w3.org/2000/svg" width="500" height="500">
<path d="M0 0 C165 0 330 0 500 0 C500 165 500 330 500 500 C335 500 170 500 0 500 C0 335 0 170 0 0 Z " fill="#963221" transform="translate(0,0)"/>
<path d="M0 0 C165 0 330 0 500 0 C500 165 500 330 500 500 C335 500 170 500 0 500 C0 335 0 170 0 0 Z M217 61 C216.02933594 61.19883789 215.05867187 61.39767578 214.05859375 61.60253906 C211.59002297 62.1115894 209.13922105 62.66560608 206.6875 63.25 C205.82648682 63.45471924 204.96547363 63.65943848 204.07836914 63.87036133 C193.21826741 66.55653237 181.97237359 69.84879069 172 75 C171.67 74.67 171.34 74.34 171 74 C161.06571669 73.36866237 150.91204143 74.39927022 141 75 C140.67 85.89 140.34 96.78 140 108 C137.24269531 107.77183594 134.48539062 107.54367188 131.64453125 107.30859375 C128.96717155 107.09183791 126.28963063 106.87746958 123.61206055 106.66333008 C121.75443563 106.51348242 119.89700844 106.36116201 118.03979492 106.20629883 C115.36685829 105.98385213 112.6933317 105.77037201 110.01953125 105.55859375 C108.7786248 105.45241982 108.7786248 105.45241982 107.51264954 105.34410095 C100.17400305 104.64430594 100.17400305 104.64430594 93.78149414 107.81054688 C87.67351338 114.95499395 87.03308203 120.29565169 87.4375 129.5 C87.85874728 139.87537821 86.51814148 144.94912513 80 153 C52.91731736 195.17283325 45.59844156 245.32769114 55 294 C57.5096533 305.02235957 60.88085422 315.69394255 65.375 326.0625 C68.50999574 333.41639958 68.97752141 340.076296 69 348 C71.31 347.67 73.62 347.34 76 347 C76.21785156 347.8146875 76.43570313 348.629375 76.66015625 349.46875 C78.35478738 353.93506645 80.75916323 357.56535169 83.4375 361.5 C83.97246094 362.29172607 84.50742188 363.08345215 85.05859375 363.89916992 C104.41959363 392.24716695 128.5083218 414.4840835 158 432 C158.63341309 432.3825293 159.26682617 432.76505859 159.91943359 433.15917969 C183.06837349 447.08058779 208.06197872 455.34589227 234.5 460.375 C235.16246735 460.5026474 235.82493469 460.6302948 236.50747681 460.7618103 C260.78942299 465.38085352 287.58660341 466.26097827 312 462 C312.89364258 461.8546582 313.78728516 461.70931641 314.70800781 461.55957031 C369.42119792 452.50396799 419.16379034 423.39572199 451.94921875 378.40234375 C457.22127343 370.94909581 461.65960663 363.02061341 466 355 C466.41942871 354.23365234 466.83885742 353.46730469 467.27099609 352.67773438 C472.37846239 343.2627906 476.27405448 334.04361377 479.015625 323.68359375 C479.76801267 320.86811132 480.6018406 318.21972472 481.625 315.5 C496.69695682 271.05485461 485.8612286 218.07224316 465.77734375 177.25390625 C462.53149505 170.91711092 458.73496517 164.9401889 454.7590332 159.0390625 C454.26878662 158.30300781 453.77854004 157.56695312 453.2734375 156.80859375 C452.61480713 155.84651001 452.61480713 155.84651001 451.94287109 154.86499023 C451 153 451 153 451 149 C452.485 148.01 452.485 148.01 454 147 C454.96637834 144.67267229 454.96637834 144.67267229 455.61328125 141.890625 C456.02646606 140.30954956 456.02646606 140.30954956 456.44799805 138.6965332 C456.87592651 136.99049927 456.87592651 136.99049927 457.3125 135.25 C457.9292179 132.873576 458.54641331 130.49727587 459.1640625 128.12109375 C459.47118164 126.92468262 459.77830078 125.72827148 460.09472656 124.49560547 C461.4090066 119.42066975 462.79691253 114.36694029 464.1875 109.3125 C464.6721349 107.52871642 465.15651778 105.74486436 465.640625 103.9609375 C466.50329021 100.7925368 467.38812089 97.63203639 468.296875 94.4765625 C468.58848511 93.44341919 468.58848511 93.44341919 468.88598633 92.3894043 C469.3945379 90.58955044 469.91358556 88.79267107 470.43359375 86.99609375 C471.03492711 83.81524764 471.09616877 82.03593286 470 79 C466.50163607 74.25844015 461.82000539 73.49417049 456.37890625 72.1328125 C454.97353859 71.76795242 454.97353859 71.76795242 453.53977966 71.39572144 C451.56206212 70.88644952 449.58251124 70.38425167 447.60131836 69.88867188 C444.57126702 69.1272032 441.55051789 68.33475479 438.52929688 67.5390625 C436.6046479 67.04759076 434.67953146 66.55794525 432.75390625 66.0703125 C431.40057945 65.71273361 431.40057945 65.71273361 430.01991272 65.34793091 C423.8591188 63.81886582 423.8591188 63.81886582 418 66 C417.84789062 65.38640625 417.69578125 64.7728125 417.5390625 64.140625 C415.04319716 60.66921839 411.41633185 60.55039365 407.375 59.75 C406.57320313 59.57726563 405.77140625 59.40453125 404.9453125 59.2265625 C402.96672325 58.80257909 400.98371944 58.39929256 399 58 C395.98716647 66.55999173 393.46125875 75.22650217 391.01904297 83.96362305 C390.7717041 84.84445557 390.52436523 85.72528809 390.26953125 86.6328125 C390.04885986 87.42574707 389.82818848 88.21868164 389.60083008 89.03564453 C389 91 389 91 388 93 C387.41734375 92.67314209 386.8346875 92.34628418 386.234375 92.00952148 C375.38903929 85.94845386 364.59761967 80.07631961 353.1171875 75.3046875 C346.20602219 72.41204437 346.20602219 72.41204437 345 70 C342.72832604 69.48683052 342.72832604 69.48683052 339.9375 69.1875 C334.97085534 68.44629686 330.36852342 67.23243384 325.625 65.625 C315.6601412 62.30543179 305.3567816 60.62358624 295 59 C293.48297485 58.73413086 293.48297485 58.73413086 291.93530273 58.46289062 C286.64946353 57.84114293 281.41974619 57.81757768 276.1015625 57.796875 C274.95319916 57.79117493 273.80483582 57.78547485 272.62167358 57.77960205 C270.19261589 57.77017681 267.76354556 57.76362794 265.33447266 57.75976562 C261.67196386 57.75012364 258.01003206 57.719102 254.34765625 57.6875 C241.54029065 57.62925272 229.49096178 58.11719893 217 61 Z " fill="#020102" transform="translate(0,0)"/>
<path d="M0 0 C1.06764587 0.00197388 2.13529175 0.00394775 3.23529053 0.00598145 C4.44575043 0.00978821 4.44575043 0.00978821 5.68066406 0.01367188 C5.8140301 9.67493737 5.94453472 19.33623676 6.07181549 28.99758434 C6.13105927 33.48839848 6.19113045 37.97919767 6.25341797 42.4699707 C6.59268296 66.98625934 6.74573135 91.49505276 6.68066406 116.01367188 C0.41066406 116.01367188 -5.85933594 116.01367188 -12.31933594 116.01367188 C-12.97933594 114.69367188 -13.63933594 113.37367188 -14.31933594 112.01367188 C-14.76575439 112.65908936 -15.21217285 113.30450684 -15.67211914 113.96948242 C-19.72973945 117.10279007 -23.67453738 116.68195292 -28.67480469 116.72070312 C-29.69101395 116.7363884 -30.70722321 116.75207367 -31.75422668 116.76823425 C-33.90514663 116.79285795 -36.05621715 116.80644062 -38.20727539 116.80981445 C-41.47964122 116.82603706 -44.74550058 116.91143184 -48.01660156 117 C-63.26152216 117.19782244 -63.26152216 117.19782244 -68.77880859 114.02294922 C-79.4204923 103.51610371 -76.87564942 86.15512106 -77.31640625 72.21948242 C-77.4016543 69.79170268 -77.50483485 67.36448599 -77.62597656 64.93823242 C-78.74873551 42.1576384 -78.74873551 42.1576384 -73.41699219 34.87304688 C-70.2974035 31.97929008 -67.88489028 30.42165934 -63.62011719 30.08789062 C-61.95116858 30.23340068 -60.28676447 30.44083711 -58.63183594 30.70117188 C-57.2982605 30.83833618 -57.2982605 30.83833618 -55.93774414 30.97827148 C-54.04830223 31.1762664 -52.1612812 31.3986621 -50.27734375 31.64355469 C-46.27628646 32.14418219 -42.26681243 32.469819 -38.24853516 32.79833984 C-33.93561517 33.16798158 -29.6279386 33.59671033 -25.31933594 34.01367188 C-24.98933594 23.12367187 -24.65933594 12.23367187 -24.31933594 1.01367188 C-21.59683594 0.84867187 -18.87433594 0.68367188 -16.06933594 0.51367188 C-14.82361816 0.43536133 -14.82361816 0.43536133 -13.55273438 0.35546875 C-9.03041435 0.09348607 -4.53034419 -0.01090336 0 0 Z " fill="#F4E7D8" transform="translate(165.3193359375,73.986328125)"/>
<path d="M0 0 C2.07101931 0.4327503 4.14200136 0.86568052 6.21270752 1.29992676 C7.80986616 1.63236947 9.40905637 1.95508625 11.00927734 2.27246094 C16.66192694 3.52978671 16.66192694 3.52978671 18.5390625 6.140625 C18.69117188 6.75421875 18.84328125 7.3678125 19 8 C19.62382568 7.6272998 20.24765137 7.25459961 20.89038086 6.87060547 C25.52521977 5.57298157 29.1779152 6.8612344 33.75390625 8.0703125 C34.69177475 8.30781219 35.62964325 8.54531189 36.59593201 8.79000854 C38.57557353 9.29552299 40.55326147 9.80874179 42.52905273 10.32910156 C45.54997349 11.12171337 48.57762486 11.88274513 51.60742188 12.640625 C53.53173407 13.13614478 55.45557975 13.63348049 57.37890625 14.1328125 C58.28314835 14.35905304 59.18739044 14.58529358 60.11903381 14.81838989 C64.74121646 16.05750957 68.02468335 16.99593827 71 21 C72.95337719 25.80565363 71.16383869 30.45676055 69.875 35.25 C69.64345215 36.14187012 69.4119043 37.03374023 69.17333984 37.95263672 C67.57420672 44.04235249 65.86411533 50.09738112 64.01269531 56.11523438 C62.64782114 60.60071672 61.47153688 65.10497983 60.375 69.6640625 C60.08544434 70.83308105 59.79588867 72.00209961 59.49755859 73.20654297 C58.92645508 75.52579211 58.37642131 77.85035622 57.85009766 80.18017578 C55.59947499 89.17589153 55.59947499 89.17589153 51.8359375 92.390625 C48.9456729 94.02089407 47.0492615 94.17789437 43.81640625 93.53125 C42.20282975 93.04707447 40.59773556 92.53413123 39 92 C37.05172491 91.44459571 35.10244703 90.89270075 33.15234375 90.34375 C31.07985802 89.73211077 29.00825311 89.11747972 26.9375 88.5 C20.31831751 86.53358034 13.71521595 84.61229675 7 83 C6.83395264 83.59425781 6.66790527 84.18851562 6.49682617 84.80078125 C5.73065194 87.53487783 4.95911258 90.26743347 4.1875 93 C3.92646484 93.93457031 3.66542969 94.86914062 3.39648438 95.83203125 C1.83733798 101.33716542 0.09153948 106.67379736 -2 112 C-11.75583392 111.42878014 -21.33144919 110.39476293 -31 109 C-28.95002913 100.47453289 -26.75591586 92.00590006 -24.3203125 83.58203125 C-21.96934328 75.40288598 -19.64695815 67.21615796 -17.34375 59.0234375 C-16.70712441 56.76299459 -16.07040481 54.50257816 -15.43359375 52.2421875 C-14.46480345 48.80315345 -13.49688225 45.36388742 -12.53173828 41.92382812 C-8.58725578 27.86973874 -4.50970372 13.88392489 0 0 Z " fill="#F3E7D8" transform="translate(399,58)"/>
<path d="M0 0 C1.67833813 -0.04853856 3.35672152 -0.09555043 5.03515625 -0.140625 C5.78611572 -0.17881348 6.5370752 -0.21700195 7.31079102 -0.25634766 C11.02255615 -0.31418886 12.77219531 0.02761282 15.72128296 2.34643555 C18.53124683 5.85354441 18.66716358 7.51873865 18.68212891 11.96484375 C18.6908905 12.62078522 18.6996521 13.27672668 18.7086792 13.95254517 C18.73059385 16.10967169 18.71615236 18.26472956 18.69921875 20.421875 C18.70258926 21.92733146 18.70744384 23.43278525 18.7137146 24.93823242 C18.72107504 28.08896872 18.71040843 31.23899488 18.68701172 34.38964844 C18.65852289 38.42183455 18.67493153 42.45235671 18.70487404 46.48448181 C18.72297035 49.59188298 18.71717864 52.69889173 18.70423508 55.80630493 C18.70090743 57.29261473 18.70496563 58.77896054 18.71663284 60.26522827 C18.72938199 62.34574273 18.70991628 64.4235898 18.68212891 66.50390625 C18.67616196 68.27664917 18.67616196 68.27664917 18.67007446 70.08520508 C17.84009976 74.20184771 16.32653951 75.69559367 13.03515625 78.234375 C10.80143738 78.83564758 10.80143738 78.83564758 8.52026367 78.80200195 C7.65974899 78.8016243 6.79923431 78.80124664 5.91264343 78.80085754 C4.99787735 78.77505112 4.08311127 78.74924469 3.140625 78.72265625 C1.71959221 78.71204414 1.71959221 78.71204414 0.26985168 78.70121765 C-2.74669396 78.67329834 -5.76136215 78.61056415 -8.77734375 78.546875 C-10.82614501 78.52178896 -12.87497545 78.49897633 -14.92382812 78.47851562 C-19.93879961 78.42773625 -24.94972841 78.32988079 -29.96484375 78.234375 C-29.96484375 88.794375 -29.96484375 99.354375 -29.96484375 110.234375 C-36.30703125 111.224375 -36.30703125 111.224375 -42.77734375 112.234375 C-44.77244995 112.54761719 -44.77244995 112.54761719 -46.80786133 112.8671875 C-47.85611084 113.02960938 -48.90436035 113.19203125 -49.984375 113.359375 C-51.05792236 113.52695312 -52.13146973 113.69453125 -53.23754883 113.8671875 C-55.96484375 114.234375 -55.96484375 114.234375 -58.96484375 114.234375 C-58.9953223 102.90105284 -59.0157761 91.56773219 -59.02734375 80.234375 C-59.02819977 79.40157642 -59.02905579 78.56877785 -59.02993774 77.71074295 C-59.05311739 52.20428961 -58.86668656 26.72753873 -57.96484375 1.234375 C-52.02484375 1.234375 -46.08484375 1.234375 -39.96484375 1.234375 C-39.63484375 1.894375 -39.30484375 2.554375 -38.96484375 3.234375 C-38.42996338 2.91291504 -37.89508301 2.59145508 -37.34399414 2.26025391 C-34.413879 0.99680149 -32.08681474 0.9136729 -28.8984375 0.8203125 C-27.69896484 0.78115723 -26.49949219 0.74200195 -25.26367188 0.70166016 C-23.98943359 0.67120605 -22.71519531 0.64075195 -21.40234375 0.609375 C-20.10361328 0.57505371 -18.80488281 0.54073242 -17.46679688 0.50537109 C-14.85281504 0.43966551 -12.2387128 0.37857653 -9.62451172 0.32226562 C-6.41416482 0.2451659 -3.20848858 0.1308908 0 0 Z " fill="#F4E7D8" transform="translate(127.96484375,233.765625)"/>
<path d="M0 0 C1.08780762 0.0198999 2.17561523 0.0397998 3.29638672 0.06030273 C5.07360107 0.15613647 5.07360107 0.15613647 6.88671875 0.25390625 C8.79914442 0.31558539 10.71157414 0.37717667 12.62408447 0.43617249 C14.00494734 0.48202153 15.38562085 0.53390396 16.76605225 0.59129333 C21.65668155 0.78970928 26.52905241 0.82610204 31.42332458 0.77867126 C35.03863097 0.74572198 38.65347009 0.75012288 42.26889038 0.7583313 C44.04714584 0.75539551 45.8254352 0.73866341 47.60342407 0.70773315 C50.12439606 0.66895443 52.63920275 0.68765865 55.16015625 0.71875 C56.28043968 0.68195129 56.28043968 0.68195129 57.4233551 0.64440918 C60.84708848 0.73775959 62.87016534 1.28010287 65.620224 3.37492371 C71.70087457 9.97544051 71.58906478 16.99722649 71.46875 25.5625 C71.47093138 26.98300167 71.4753422 28.40350147 71.4818573 29.82398987 C71.48763565 32.78891469 71.4688679 35.75234953 71.43188477 38.71704102 C71.3864441 42.49115782 71.39898576 46.2623828 71.42969227 50.0365591 C71.44761072 52.96668844 71.43616525 55.89615674 71.41605186 58.82625008 C71.40959827 60.21630611 71.4115476 61.60643063 71.42255592 62.99645805 C71.46398496 70.56293188 71.25124221 77.66441476 66.78681946 84.03556824 C61.95652286 87.92328994 55.76977662 87.12926811 49.8671875 86.96875 C48.41759773 86.96277983 46.96798834 86.96052756 45.51838684 86.96180725 C42.48359525 86.95400181 39.45176936 86.91275016 36.41772461 86.84545898 C32.55050864 86.76072505 28.68655796 86.74138123 24.81852245 86.7451849 C21.82486936 86.74381695 18.8319143 86.71625981 15.83849525 86.68017769 C14.41415999 86.66439071 12.98974646 86.65444195 11.5653286 86.65070915 C3.01470247 86.60378091 -3.42818005 85.99622493 -10.42578125 80.81640625 C-10.54191972 71.5670439 -10.63061972 62.31793471 -10.68484211 53.06800079 C-10.71087374 48.77228435 -10.74615256 44.47706883 -10.80297852 40.18164062 C-10.85753021 36.03188697 -10.88725014 31.8826134 -10.90016747 27.73252869 C-10.90936607 26.15372669 -10.92732894 24.5749493 -10.95443153 22.99635315 C-11.20755789 7.63414173 -11.20755789 7.63414173 -6.8553009 2.07168579 C-4.58234254 0.07577191 -2.99183395 -0.11379032 0 0 Z " fill="#F4E7D8" transform="translate(281.42578125,68.18359375)"/>
<path d="M0 0 C4.85403585 0.76657896 8.56105465 1.95808514 13 4 C13.31815407 12.62551029 13.08249391 19.87634037 10.65625 28.2109375 C9.80349841 31.83513174 9.95499072 35.16701085 10.0859375 38.86328125 C9.9641617 41.89107052 8.96317189 43.73480166 7 46 C6.34 46 5.68 46 5 46 C4.82331787 46.84747803 4.64663574 47.69495605 4.46459961 48.56811523 C2.66175498 57.11152059 0.68585128 65.59263538 -1.4375 74.0625 C-1.72431641 75.22587891 -2.01113281 76.38925781 -2.30664062 77.58789062 C-4.029517 84.48323329 -5.9553991 91.27812715 -8.08276367 98.05932617 C-9.27891745 101.89421364 -10.37408889 105.75157475 -11.4375 109.625 C-11.64141357 110.36282715 -11.84532715 111.1006543 -12.05541992 111.86083984 C-14.44617894 120.55367978 -16.72705325 129.27575333 -19 138 C-23.89236813 137.00885357 -28.52887128 136.03387082 -33.0625 133.875 C-34.19365234 133.34519531 -34.19365234 133.34519531 -35.34765625 132.8046875 C-35.89292969 132.53914062 -36.43820312 132.27359375 -37 132 C-36.69140975 129.22867983 -36.3782967 126.45800014 -36.0625 123.6875 C-35.93198242 122.50897461 -35.93198242 122.50897461 -35.79882812 121.30664062 C-35.71181641 120.54931641 -35.62480469 119.79199219 -35.53515625 119.01171875 C-35.456604 118.31522217 -35.37805176 117.61872559 -35.29711914 116.90112305 C-35 115 -35 115 -34 112 C-35.98 112.495 -35.98 112.495 -38 113 C-38 109.04 -38 105.08 -38 101 C-46.58 101 -55.16 101 -64 101 C-64 103.97 -64 106.94 -64 110 C-72.76530472 102.98775623 -72.76530472 102.98775623 -73.41650391 97.47241211 C-73.45103563 96.07433909 -73.47018812 94.67582864 -73.4765625 93.27734375 C-73.49214203 92.53545303 -73.50772156 91.79356232 -73.52377319 91.02919006 C-73.57118866 88.66530382 -73.59901702 86.30171062 -73.625 83.9375 C-73.66153885 81.56992653 -73.70219924 79.2025173 -73.74765015 76.83509827 C-73.77478601 75.36387242 -73.79617653 73.89252682 -73.81118774 72.42112732 C-73.85839903 69.34996115 -74.02113307 66.93660079 -75 64 C-76.06935329 51.90524551 -75.68509103 40.82321804 -69.34375 30.234375 C-67 28 -67 28 -63.328125 27.51171875 C-61.9678884 27.5447342 -60.60807662 27.60406429 -59.25 27.6875 C-58.55261719 27.71005859 -57.85523438 27.73261719 -57.13671875 27.75585938 C-55.42355065 27.81452952 -53.71149377 27.90420744 -52 28 C-52 26.68 -52 25.36 -52 24 C-48.0186217 22.6728739 -44.14954773 22.93084087 -40 23 C-40 24.65 -40 26.3 -40 28 C-39.23816406 27.88398438 -38.47632813 27.76796875 -37.69140625 27.6484375 C-32.69034269 27.21139075 -29.35551485 26.94700349 -25.26953125 30.12109375 C-17 39.41588499 -17 39.41588499 -17 45 C-16.34 45 -15.68 45 -15 45 C-14.88785156 43.78183594 -14.77570313 42.56367188 -14.66015625 41.30859375 C-13.96691667 35.14418682 -12.74572496 29.122198 -11.4375 23.0625 C-11.22287109 21.94681641 -11.00824219 20.83113281 -10.78710938 19.68164062 C-8.98522165 11.43546811 -5.77628033 6.12772193 0 0 Z " fill="#F8B431" transform="translate(445,222)"/>
<path d="M0 0 C4.05754856 -0.11614096 8.1146472 -0.18638192 12.17333984 -0.25146484 C13.41108154 -0.28957275 14.64882324 -0.32768066 15.92407227 -0.36694336 C17.67167847 -0.38325806 17.67167847 -0.38325806 19.45458984 -0.39990234 C20.46585937 -0.41972168 21.47712891 -0.43954102 22.51904297 -0.45996094 C26.98604056 0.36636447 30.45002557 1.85921994 33.67333984 5.12353516 C34.80676907 8.13730584 34.74726887 10.95404422 34.67333984 14.14697266 C34.68426163 15.03375702 34.69518341 15.92054138 34.70643616 16.834198 C34.73294259 19.72350966 34.70365578 22.6093105 34.67333984 25.49853516 C34.68082773 27.48260092 34.69183391 29.46665643 34.70629883 31.45068359 C34.73380738 36.40919412 34.71671803 41.36637822 34.68621826 46.3248291 C34.66688578 50.52611559 34.68695983 54.72698088 34.70849609 58.92822266 C34.73906865 65.99378348 34.72079498 73.05799195 34.67333984 80.12353516 C28.07333984 80.12353516 21.47333984 80.12353516 14.67333984 80.12353516 C14.34333984 78.80353516 14.01333984 77.48353516 13.67333984 76.12353516 C13.01333984 76.12353516 12.35333984 76.12353516 11.67333984 76.12353516 C11.01333984 77.44353516 10.35333984 78.76353516 9.67333984 80.12353516 C3.59036002 80.32255048 -2.49069184 80.46704819 -8.57617188 80.56298828 C-10.6422632 80.60301255 -12.7081309 80.65745215 -14.7734375 80.72705078 C-34.10866312 81.36191092 -34.10866312 81.36191092 -40.74072266 76.84228516 C-44.00667771 73.49484789 -44.88402516 71.04456763 -44.98291016 66.39697266 C-44.79593742 64.30274639 -44.57643352 62.21120269 -44.32666016 60.12353516 C-44.2617104 58.05358635 -44.20956422 55.98319503 -44.17041016 53.91259766 C-44.06102009 51.85762713 -43.94643456 49.80292659 -43.82666016 47.74853516 C-43.79830078 46.70826172 -43.76994141 45.66798828 -43.74072266 44.59619141 C-43.64404297 43.0821875 -43.64404297 43.0821875 -43.54541016 41.53759766 C-43.50351563 40.63992676 -43.46162109 39.74225586 -43.41845703 38.81738281 C-41.65009691 34.45421519 -38.45533697 32.2374547 -34.32666016 30.12353516 C-31.17974497 29.39466359 -28.23090708 29.41488655 -25.01416016 29.53759766 C-24.15983398 29.54608734 -23.30550781 29.55457703 -22.42529297 29.56332397 C-19.72440838 29.59663348 -17.02662594 29.67186172 -14.32666016 29.74853516 C-12.48425568 29.77866416 -10.64180391 29.8060348 -8.79931641 29.83056641 C-4.30725473 29.89634995 0.18251862 29.99970737 4.67333984 30.12353516 C4.67333984 27.15353516 4.67333984 24.18353516 4.67333984 21.12353516 C-1.92666016 20.79353516 -8.52666016 20.46353516 -15.32666016 20.12353516 C-15.65666016 21.44353516 -15.98666016 22.76353516 -16.32666016 24.12353516 C-25.0436619 24.267222 -33.63986914 23.84315098 -42.32666016 23.12353516 C-43.67303114 16.68543389 -43.94501389 12.25425131 -40.45166016 6.49853516 C-37.81685623 2.61373123 -37.81685623 2.61373123 -36.32666016 1.12353516 C-34.31596008 0.96320532 -32.29973962 0.8717049 -30.28369141 0.80712891 C-28.35203125 0.74356201 -28.35203125 0.74356201 -26.38134766 0.67871094 C-24.96731172 0.63853946 -23.55324796 0.59933739 -22.13916016 0.56103516 C-21.0749585 0.53175934 -21.0749585 0.53175934 -19.98925781 0.50189209 C-15.51589093 0.38146881 -11.04228356 0.27684791 -6.56842041 0.17681885 C-4.37869813 0.12477203 -2.18940904 0.06377646 0 0 Z " fill="#F4E7D8" transform="translate(249.32666015625,262.87646484375)"/>
<path d="M0 0 C3.18400043 -0.19372636 4.71709248 0.10813358 7.46598816 1.80072021 C9.81347656 4.16748047 9.81347656 4.16748047 10.41474915 7.0022583 C10.40364609 8.09479919 10.39254303 9.18734009 10.38110352 10.31298828 C10.38072586 11.55397278 10.38034821 12.79495728 10.37995911 14.07354736 C10.35442793 15.42257698 10.32834798 16.77159631 10.30175781 18.12060547 C10.29242787 19.50493085 10.28531261 20.88927279 10.28031921 22.27362061 C10.26126286 25.91054165 10.21217635 29.54645821 10.15679932 33.1829834 C10.1055759 36.89642753 10.08279873 40.61003459 10.05761719 44.32373047 C10.00405412 51.60543754 9.91876053 58.88631806 9.81347656 66.16748047 C3.81347656 69.16748047 3.81347656 69.16748047 -15.18652344 69.16748047 C-15.18652344 53.65748047 -15.18652344 38.14748047 -15.18652344 22.16748047 C-20.46652344 22.16748047 -25.74652344 22.16748047 -31.18652344 22.16748047 C-31.18652344 37.01748047 -31.18652344 51.86748047 -31.18652344 67.16748047 C-47.18652344 69.16748047 -47.18652344 69.16748047 -56.18652344 69.16748047 C-56.18652344 46.72748047 -56.18652344 24.28748047 -56.18652344 1.16748047 C-51.23652344 1.16748047 -46.28652344 1.16748047 -41.18652344 1.16748047 C-40.85652344 2.15748047 -40.52652344 3.14748047 -40.18652344 4.16748047 C-39.19652344 3.50748047 -38.20652344 2.84748047 -37.18652344 2.16748047 C-29.85228925 1.04882455 -22.46837165 0.86198715 -15.06152344 0.60498047 C-13.92070312 0.56179688 -12.77988281 0.51861328 -11.60449219 0.47412109 C-9.41567378 0.39404237 -7.22652222 0.32246748 -5.03710938 0.26074219 C-3.35672399 0.20576555 -1.67637398 0.12840471 0 0 Z " fill="#F4E6D7" transform="translate(347.1865234375,318.83251953125)"/>
<path d="M0 0 C2.055602 -0.04636696 4.11120789 -0.09257322 6.1668396 -0.13760376 C7.75114497 -0.17444597 9.33525394 -0.21997294 10.91918945 -0.27026367 C11.60198975 -0.27775635 12.28479004 -0.28524902 12.98828125 -0.29296875 C14.03302612 -0.31653442 14.03302612 -0.31653442 15.09887695 -0.34057617 C17.54489783 0.09761557 18.42702086 1.13437358 20 3 C20.66 2.34 21.32 1.68 22 1 C23.82585144 0.70565796 23.82585144 0.70565796 26.06323242 0.64599609 C27.32045357 0.60749039 27.32045357 0.60749039 28.60307312 0.56820679 C29.51136368 0.55343292 30.41965424 0.53865906 31.35546875 0.5234375 C32.75796623 0.49922226 32.75796623 0.49922226 34.188797 0.47451782 C36.17176893 0.44682439 38.15483644 0.42538524 40.13793945 0.40966797 C43.15957871 0.37531741 46.17679299 0.28759874 49.19726562 0.19921875 C51.12496783 0.178957 53.05270726 0.16192723 54.98046875 0.1484375 C56.32772285 0.09591324 56.32772285 0.09591324 57.70219421 0.04232788 C61.5481842 0.06868131 64.02743792 0.26392981 67.14891052 2.62637329 C70.77111972 6.48108189 72.88722524 9.596934 72.82421875 15.0390625 C72.81970703 16.11414063 72.81519531 17.18921875 72.81054688 18.296875 C72.74963867 19.94429687 72.74963867 19.94429687 72.6875 21.625 C72.68943359 22.73101562 72.69136719 23.83703125 72.69335938 24.9765625 C72.61259657 29.61067641 72.22532735 33.36934619 70.66015625 37.75 C66.40913369 41.34557855 62.11802057 40.64067614 56.75 40.375 C55.203125 40.33439453 55.203125 40.33439453 53.625 40.29296875 C51.08243868 40.22234205 48.54095342 40.11472532 46 40 C45.67 34.72 45.34 29.44 45 24 C39.72 24 34.44 24 29 24 C29 41.49 29 58.98 29 77 C19.76 77 10.52 77 1 77 C0.85588293 69.24856023 0.7129276 61.49711531 0.57275391 53.74560547 C0.52490308 51.11766383 0.47641847 48.48973365 0.42724609 45.86181641 C0.14163363 30.57280653 -0.08074317 15.29185994 0 0 Z " fill="#F5E8D9" transform="translate(191,124)"/>
<path d="M0 0 C12.21 0 24.42 0 37 0 C37.21585462 18.99520674 36.49368383 37.93868688 35.77319336 56.91650391 C35.5951292 61.60885483 35.42436128 66.3014399 35.25558567 70.994133 C35.12382188 74.63506097 34.98820658 78.27583765 34.85142326 81.9165802 C34.78683094 83.64845841 34.72344645 85.38038212 34.66131783 87.11235046 C34.57444912 89.51842699 34.48236924 91.92424956 34.38891602 94.33007812 C34.36445908 95.03651962 34.34000214 95.74296112 34.31480408 96.47080994 C34.16635494 100.14100851 33.72721133 103.36394333 33 107 C23.76 107.66 14.52 108.32 5 109 C5 81.28 5 53.56 5 25 C3.35 24.67 1.7 24.34 0 24 C0 16.08 0 8.16 0 0 Z " fill="#F3E6D7" transform="translate(153,233)"/>
<path d="M0 0 C0 1.65 0 3.3 0 5 C1.65 5 3.3 5 5 5 C4.47176797 23.00744702 3.8958737 41.00628149 3 59 C3.66 59 4.32 59 5 59 C4.8559912 60.66682531 4.70968156 62.33345185 4.5625 64 C4.48128906 64.928125 4.40007812 65.85625 4.31640625 66.8125 C3.94550065 70.54903052 3.46573732 74.27410144 3 78 C-5.91 78 -14.82 78 -24 78 C-24 80.97 -24 83.94 -24 87 C-32.76530472 79.98775623 -32.76530472 79.98775623 -33.41650391 74.47241211 C-33.45103563 73.07433909 -33.47018812 71.67582864 -33.4765625 70.27734375 C-33.49214203 69.53545303 -33.50772156 68.79356232 -33.52377319 68.02919006 C-33.57118866 65.66530382 -33.59901702 63.30171062 -33.625 60.9375 C-33.66153885 58.56992653 -33.70219924 56.2025173 -33.74765015 53.83509827 C-33.77478601 52.36387242 -33.79617653 50.89252682 -33.81118774 49.42112732 C-33.85839903 46.34996115 -34.02113307 43.93660079 -35 41 C-36.06935329 28.90524551 -35.68509103 17.82321804 -29.34375 7.234375 C-27 5 -27 5 -23.328125 4.51171875 C-21.9678884 4.5447342 -20.60807662 4.60406429 -19.25 4.6875 C-18.55261719 4.71005859 -17.85523438 4.73261719 -17.13671875 4.75585938 C-15.42355065 4.81452952 -13.71149377 4.90420744 -12 5 C-12 3.68 -12 2.36 -12 1 C-8.0186217 -0.3271261 -4.14954773 -0.06915913 0 0 Z " fill="#EE732D" transform="translate(405,245)"/>
<path d="M0 0 C2.91275176 -0.61973442 4.19706339 -0.83220158 7 0 C12.35127541 4.48445725 17.42786444 10.10679025 19 17 C18.76336009 20.77309195 17.8814456 24.33082452 17 28 C16.65190774 29.56964138 16.3070966 31.14001253 15.96484375 32.7109375 C14.99643024 37.145252 14.00316275 41.5734226 13 46 C12.34 46 11.68 46 11 46 C11.020625 47.258125 11.04125 48.51625 11.0625 49.8125 C11.10886083 52.64051087 10.91692961 54.24921116 10 57 C6.535 57.495 6.535 57.495 3 58 C2.67 59.98 2.34 61.96 2 64 C2.78503906 63.95359375 3.57007813 63.9071875 4.37890625 63.859375 C11.28988092 63.62194274 15.43664884 63.79910219 21 68 C22.68124308 69.65196164 24.35016707 71.31666793 26 73 C25.54560547 74.61841797 25.54560547 74.61841797 25.08203125 76.26953125 C21.94420705 87.48488518 18.93613037 98.73025703 16 110 C11.10763187 109.00885357 6.47112872 108.03387082 1.9375 105.875 C1.18339844 105.52179688 0.42929687 105.16859375 -0.34765625 104.8046875 C-0.89292969 104.53914063 -1.43820312 104.27359375 -2 104 C-1.69140975 101.22867983 -1.3782967 98.45800014 -1.0625 95.6875 C-0.97548828 94.90181641 -0.88847656 94.11613281 -0.79882812 93.30664062 C-0.71181641 92.54931641 -0.62480469 91.79199219 -0.53515625 91.01171875 C-0.456604 90.31522217 -0.37805176 89.61872559 -0.29711914 88.90112305 C0 87 0 87 1 84 C-0.98 84.495 -0.98 84.495 -3 85 C-3.57014005 74.42073458 -1.82283831 64.37281803 0 54 C-0.66 54 -1.32 54 -2 54 C-2.10697879 42.73924757 -2.07534351 31.50141677 -1.5625 20.25 C-1.52326416 19.37134277 -1.48402832 18.49268555 -1.44360352 17.58740234 C-1.15252658 11.70217308 -0.63786653 5.8574149 0 0 Z " fill="#EF6F2E" transform="translate(410,250)"/>
<path d="M0 0 C3.29388996 0.82347249 6.2641383 1.82882716 9.4375 3 C15.92999439 5.20952953 22.17704283 5.77990461 29 6 C28.85691406 7.33804688 28.85691406 7.33804688 28.7109375 8.703125 C28.60007812 9.87359375 28.48921875 11.0440625 28.375 12.25 C28.25898438 13.41015625 28.14296875 14.5703125 28.0234375 15.765625 C28.00027015 18.96271956 28.14308721 20.44145241 30 23 C32.9221809 24.23380971 35.70709126 24.94141825 38.8125 25.5625 C41 26 41 26 42 27 C42.125 29.5 42.125 29.5 42 32 C41 33 41 33 37.9375 33.0625 C36.968125 33.041875 35.99875 33.02125 35 33 C34.76925781 33.99 34.53851563 34.98 34.30078125 36 C30.37936369 52.20250981 30.37936369 52.20250981 26 56 C15.69364953 61.48170189 1.2465703 59.2660215 -10 59 C-10.04254356 57.00045254 -10.04080783 54.99958364 -10 53 C-9.505 52.505 -9.505 52.505 -9 52 C-8.6068352 50.32115762 -8.25914548 48.63149955 -7.9375 46.9375 C-7.76089844 46.01839844 -7.58429688 45.09929687 -7.40234375 44.15234375 C-7.26957031 43.44207031 -7.13679688 42.73179687 -7 42 C-5.53890937 42.25554054 -4.08111904 42.53000372 -2.625 42.8125 C-1.81289063 42.96332031 -1.00078125 43.11414063 -0.1640625 43.26953125 C2 44 2 44 4 47 C5.32 47 6.64 47 8 47 C8 45.68 8 44.36 8 43 C9.1446875 43.495 9.1446875 43.495 10.3125 44 C15.25174651 45.33945668 19.91463109 45.16287658 25 45 C25 44.01 25 43.02 25 42 C24.10861328 41.89558594 24.10861328 41.89558594 23.19921875 41.7890625 C20.18389657 40.70718847 19.49434949 39.05765375 17.8125 36.375 C15.47081417 32.97100889 15.47081417 32.97100889 11.79296875 31.6640625 C9.48872814 31.96945484 9.48872814 31.96945484 7.2109375 32.53125 C4.03111332 33.20541767 1.17766922 32.50842708 -2 32 C-3.485 32.495 -3.485 32.495 -5 33 C-5 30.36 -5 27.72 -5 25 C-6.32 24.67 -7.64 24.34 -9 24 C-9 22.35 -9 20.7 -9 19 C-8.360625 18.7525 -7.72125 18.505 -7.0625 18.25 C-4.81258459 17.18437567 -4.81258459 17.18437567 -4.25 14.875 C-4.1675 14.25625 -4.085 13.6375 -4 13 C-4.66 13 -5.32 13 -6 13 C-6 12.34 -6 11.68 -6 11 C-4.68 10.67 -3.36 10.34 -2 10 C-1.34 6.7 -0.68 3.4 0 0 Z " fill="#9B3520" transform="translate(385,183)"/>
<path d="M0 0 C0 1.65 0 3.3 0 5 C1.65 5 3.3 5 5 5 C4.48467651 22.67509869 3.93465296 40.34102495 3 58 C-2.93463378 57.26706561 -6.95499361 56.08613944 -12 53 C-12.82757813 52.56945312 -13.65515625 52.13890625 -14.5078125 51.6953125 C-17.57293576 49.68712829 -19.14170586 48.18684831 -21 45 C-22.3247073 38.11596951 -21.47140723 30.93949734 -21 24 C-20.90910336 22.13565184 -20.82306606 20.27105962 -20.7421875 18.40625 C-20.54111679 13.933863 -20.28593494 9.46773341 -20 5 C-17.36 5 -14.72 5 -12 5 C-12 3.68 -12 2.36 -12 1 C-8.0186217 -0.3271261 -4.14954773 -0.06915913 0 0 Z " fill="#F5ECD8" transform="translate(405,245)"/>
<path d="M0 0 C3.63 0 7.26 0 11 0 C11 20.46 11 40.92 11 62 C7.7 61.67 4.4 61.34 1 61 C1 61.99 1 62.98 1 64 C6.28 64 11.56 64 17 64 C17 62.02 17 60.04 17 58 C33.59512541 59.08353053 33.59512541 59.08353053 39 61 C39.66 61.99 40.32 62.98 41 64 C30.47887807 70.42957452 17.07292043 69.31611372 5.18188477 69.26074219 C2.43939172 69.2500074 -0.30244847 69.26069662 -3.04492188 69.2734375 C-13.78149815 69.28268782 -23.950825 69.21934741 -34 65 C-34 64.01 -34 63.02 -34 62 C-32.12577848 61.51779737 -30.25058246 61.03938167 -28.375 60.5625 C-27.33085937 60.29566406 -26.28671875 60.02882813 -25.2109375 59.75390625 C-20.4787284 58.64281579 -15.99234414 57.86375236 -11.125 57.9375 C-9.95324219 57.95103516 -9.95324219 57.95103516 -8.7578125 57.96484375 C-8.17773438 57.97644531 -7.59765625 57.98804688 -7 58 C-7 58.99 -7 59.98 -7 61 C-7.63808594 61.04898438 -8.27617187 61.09796875 -8.93359375 61.1484375 C-9.75988281 61.22320312 -10.58617187 61.29796875 -11.4375 61.375 C-12.67306641 61.47941406 -12.67306641 61.47941406 -13.93359375 61.5859375 C-14.95646484 61.79089844 -14.95646484 61.79089844 -16 62 C-16.33 62.66 -16.66 63.32 -17 64 C-11.72 64 -6.44 64 -1 64 C-1.0103125 61.52757812 -1.020625 59.05515625 -1.03125 56.5078125 C-1.04850238 44.95976761 -0.76973297 33.41920912 -0.5 21.875 C-0.45163765 19.74088961 -0.40345949 17.60677503 -0.35546875 15.47265625 C-0.23909533 10.31505365 -0.12025456 5.15751351 0 0 Z " fill="#933324" transform="translate(389,328)"/>
<path d="M0 0 C8.58 0 17.16 0 26 0 C26 3.96 26 7.92 26 12 C27.32 11.67 28.64 11.34 30 11 C29.81739559 22.4044756 27.579015 32.21012821 24 43 C24.66 43 25.32 43 26 43 C26.12866176 51.73470423 25.76508013 60.29721349 25 69 C19.72 69 14.44 69 9 69 C9 68.01 9 67.02 9 66 C12.3 66.33 15.6 66.66 19 67 C19 46.54 19 26.08 19 5 C15.37 5 11.74 5 8 5 C8.00785522 6.9488208 8.00785522 6.9488208 8.01586914 8.93701172 C8.03423291 13.84618415 8.04554431 18.75535367 8.05493164 23.66455078 C8.05990125 25.77262892 8.06667926 27.88070373 8.07543945 29.98876953 C8.12824878 43.04199134 7.86256723 55.97319724 7 69 C1.72 69 -3.56 69 -9 69 C-8.67 68.01 -8.34 67.02 -8 66 C-5.03 66 -2.06 66 1 66 C0.58764748 54.779671 0.03990155 43.61343655 -1.0625 32.4375 C-1.83602519 24.58303092 -2.26826416 16.8988891 -2 9 C-1.34 9 -0.68 9 0 9 C0 6.03 0 3.06 0 0 Z " fill="#272C5E" transform="translate(381,323)"/>
<path d="M0 0 C6.6 0 13.2 0 20 0 C20 12.87 20 25.74 20 39 C6.5 39 6.5 39 1 38 C0.34065049 25.31804345 -0.11980992 12.6998511 0 0 Z " fill="#973423" transform="translate(301,93)"/>
<path d="M0 0 C6.27 0 12.54 0 19 0 C19 10.56 19 21.12 19 32 C12.07 32 5.14 32 -2 32 C-2.25574478 21.13084704 -1.24331387 10.80128926 0 0 Z " fill="#973524" transform="translate(121,133)"/>
<path d="M0 0 C6.01213103 0.54655737 12.02375071 1.1462501 18 2 C18 12.23 18 22.46 18 33 C12.06 33.66 6.12 34.32 0 35 C0 23.45 0 11.9 0 0 Z " fill="#993828" transform="translate(99,257)"/>
<path d="M0 0 C5.6143991 1.56448671 10.86810338 3.16395187 16 6 C14.86841138 12.19395877 13.49157697 18.32175769 12 24.4375 C11.8340332 25.13552734 11.66806641 25.83355469 11.49707031 26.55273438 C10.68091218 29.84622909 9.90307612 32.14538582 8 35 C1.72069519 35.66097945 -3.17085378 34.2668902 -9 32 C-8.39821356 25.03766522 -6.58303939 18.71735074 -4.5 12.0625 C-4.17902344 11.00998047 -3.85804688 9.95746094 -3.52734375 8.87304688 C-1.14149306 1.14149306 -1.14149306 1.14149306 0 0 Z " fill="#060405" transform="translate(422,88)"/>
<path d="M0 0 C3.94727588 -0.17942163 6.5980513 -0.09350689 10 2 C10 3.32 10 4.64 10 6 C11.2065625 6.185625 11.2065625 6.185625 12.4375 6.375 C13.283125 6.58125 14.12875 6.7875 15 7 C15.33 7.66 15.66 8.32 16 9 C16.66 7.68 17.32 6.36 18 5 C23.41538462 4.63076923 23.41538462 4.63076923 26.375 6.5 C26.91125 6.995 27.4475 7.49 28 8 C27.47755558 11.76159981 26.7772785 14.32191002 24 17 C20.8591115 17.39261106 19.02076303 17.00692101 16 16 C19.10391762 17.83935859 21.39429145 18.55472439 25 18 C26.84315671 16.0995533 26.84315671 16.0995533 28 14 C29.32 14.33 30.64 14.66 32 15 C31.44854729 20.23880078 30.57077907 24.97350697 29 30 C26.734375 30.31640625 26.734375 30.31640625 24 30 C22.078125 27.77734375 22.078125 27.77734375 20.25 24.9375 C17.68885458 21.20051503 17.68885458 21.20051503 13.73046875 19.59375 C11.42867078 19.90240964 11.42867078 19.90240964 9.17578125 20.49609375 C6.01010461 21.22925764 3.17289238 20.50766278 0 20 C-0.99 20.33 -1.98 20.66 -3 21 C-3 18.36 -3 15.72 -3 13 C-4.32 12.67 -5.64 12.34 -7 12 C-7 10.35 -7 8.7 -7 7 C-5.68 6.34 -4.36 5.68 -3 5 C-2.773125 5.94875 -2.54625 6.8975 -2.3125 7.875 C-1.30410773 11.13408416 -1.30410773 11.13408416 1.375 12.4375 C4.05970136 13.01279315 5.45545955 12.94242239 8 12 C8 11.67 8 11.34 8 11 C6.68 11.33 5.36 11.66 4 12 C4.66 10.68 5.32 9.36 6 8 C5.01 8 4.02 8 3 8 C2.67 8.99 2.34 9.98 2 11 C1.01 10.67 0.02 10.34 -1 10 C-1.125 2.25 -1.125 2.25 0 0 Z " fill="#BF998D" transform="translate(383,195)"/>
<path d="M0 0 C1.17175781 0.01353516 1.17175781 0.01353516 2.3671875 0.02734375 C2.94726562 0.03894531 3.52734375 0.05054688 4.125 0.0625 C4.125 1.0525 4.125 2.0425 4.125 3.0625 C3.16787109 3.13597656 3.16787109 3.13597656 2.19140625 3.2109375 C1.36511719 3.28570312 0.53882813 3.36046875 -0.3125 3.4375 C-1.54806641 3.54191406 -1.54806641 3.54191406 -2.80859375 3.6484375 C-3.49050781 3.78507812 -4.17242187 3.92171875 -4.875 4.0625 C-5.205 4.7225 -5.535 5.3825 -5.875 6.0625 C-0.595 6.0625 4.685 6.0625 10.125 6.0625 C10.125 4.0825 10.125 2.1025 10.125 0.0625 C13.755 0.0625 17.385 0.0625 21.125 0.0625 C21.125 1.0525 21.125 2.0425 21.125 3.0625 C18.155 3.0625 15.185 3.0625 12.125 3.0625 C12.125 4.0525 12.125 5.0425 12.125 6.0625 C17.405 6.0625 22.685 6.0625 28.125 6.0625 C28.125 4.0825 28.125 2.1025 28.125 0.0625 C44.72012541 1.14603053 44.72012541 1.14603053 50.125 3.0625 C51.115 4.5475 51.115 4.5475 52.125 6.0625 C41.60387807 12.49207452 28.19792043 11.37861372 16.30688477 11.32324219 C13.56439172 11.3125074 10.82255153 11.32319662 8.08007812 11.3359375 C-2.65649815 11.34518782 -12.825825 11.28184741 -22.875 7.0625 C-22.875 6.0725 -22.875 5.0825 -22.875 4.0625 C-21.00077848 3.58029737 -19.12558246 3.10188167 -17.25 2.625 C-15.68378906 2.22474609 -15.68378906 2.22474609 -14.0859375 1.81640625 C-9.3537284 0.70531579 -4.86734414 -0.07374764 0 0 Z " fill="#F2EFEB" transform="translate(377.875,385.9375)"/>
<path d="M0 0 C5.6505658 0.61033986 7.69529788 3.40285881 11.1875 7.609375 C14.03448679 11.36445241 16.1604097 14.36469772 15.86328125 19.24609375 C15.37243733 22.20466676 14.70065663 25.08339105 14 28 C13.65190774 29.56964138 13.3070966 31.14001253 12.96484375 32.7109375 C11.99643024 37.145252 11.00316275 41.5734226 10 46 C9.34 46 8.68 46 8 46 C8.020625 47.258125 8.04125 48.51625 8.0625 49.8125 C8.10886083 52.64051087 7.91692961 54.24921116 7 57 C4.69 57 2.38 57 0 57 C0.33 56.34 0.66 55.68 1 55 C1.15520557 52.67726841 1.25019167 50.35040687 1.31640625 48.0234375 C1.33718735 47.33819 1.35796844 46.6529425 1.37937927 45.94692993 C1.44480185 43.75638931 1.50372554 41.56572811 1.5625 39.375 C1.60569218 37.8906125 1.6493067 36.40623722 1.69335938 34.921875 C1.80047553 31.28137916 1.90176362 27.64074749 2 24 C2.66 24 3.32 24 4 24 C3.79503906 23.18917969 3.59007812 22.37835938 3.37890625 21.54296875 C1.62913753 14.3513356 0.42946885 7.38982604 0 0 Z " fill="#F3872A" transform="translate(413,250)"/>
<path d="M0 0 C5.75 1.875 5.75 1.875 8 3 C6.74265402 11.62472961 4.83379116 19.91964016 2.5 28.3125 C2.19191406 29.43978516 1.88382812 30.56707031 1.56640625 31.72851562 C0.07785458 37.16204866 -1.43785688 42.58717407 -3 48 C-7.95 46.515 -7.95 46.515 -13 45 C-10.82363416 35.94887855 -8.47908642 26.95587744 -5.9375 18 C-5.69241699 17.12899658 -5.44733398 16.25799316 -5.19482422 15.3605957 C-3.69686088 10.13175176 -1.97664007 5.06770628 0 0 Z " fill="#EC9C21" transform="translate(442,264)"/>
<path d="M0 0 C2.69082872 0.17635452 5.32851446 0.61835921 8 1 C9.18056769 4.54170308 8.74100455 5.58749843 7.63671875 9.078125 C7.32669922 10.07457031 7.01667969 11.07101562 6.69726562 12.09765625 C6.36404297 13.13792969 6.03082031 14.17820312 5.6875 15.25 C5.04515692 17.29674449 4.40322011 19.34361654 3.76171875 21.390625 C3.45669434 22.35548828 3.15166992 23.32035156 2.83740234 24.31445312 C1.83509785 27.52884072 0.9025384 30.75635947 0 34 C2.97 34.99 5.94 35.98 9 37 C8.67 39.64 8.34 42.28 8 45 C1.50476013 43.76281145 -4.05901532 41.89324549 -10 39 C-8.61485899 32.8208958 -7.21956916 26.65832717 -5.5 20.5625 C-3.94452859 15.02010977 -2.78645573 9.41458163 -1.6484375 3.7734375 C-1 1 -1 1 0 0 Z " fill="#F9B530" transform="translate(418,315)"/>
<path d="M0 0 C7.56459343 -0.44716808 12.83733663 -0.65343969 19 4 C20.68124308 5.65196164 22.35016707 7.31666793 24 9 C23.67386719 10.17175781 23.34773438 11.34351563 23.01171875 12.55078125 C20.65366077 21.02823883 18.30101208 29.50683346 16 38 C12.44219804 37.39009109 9.3171411 36.4216319 6 35 C7.63083642 26.51434709 9.6847704 18.3600708 12.3737793 10.15625 C13.58312522 6.65185083 13.58312522 6.65185083 14 3 C9.38 2.34 4.76 1.68 0 1 C0 0.67 0 0.34 0 0 Z " fill="#EC9A27" transform="translate(412,314)"/>
<path d="M0 0 C4.84659077 0.59104765 8.60748167 1.97944157 13 4 C13.10826289 6.4178712 13.18739789 8.83087556 13.25 11.25 C13.30027344 12.27287109 13.30027344 12.27287109 13.3515625 13.31640625 C13.41899298 16.78907596 13.25550499 18.65277528 11.171875 21.484375 C9 23 9 23 6 23 C5.34 20.69 4.68 18.38 4 16 C-0.455 18.475 -0.455 18.475 -5 21 C-7.03182005 16.80937115 -7.69466625 13.63110832 -7 9 C-4.92837288 5.76082244 -2.55194626 2.87093954 0 0 Z " fill="#F2C3AA" transform="translate(445,222)"/>
<path d="M0 0 C3.29388996 0.82347249 6.2641383 1.82882716 9.4375 3 C15.9971261 5.23237584 22.09535783 5.69979817 29 6 C28.67 9.96 28.34 13.92 28 18 C26.948125 17.67 25.89625 17.34 24.8125 17 C20.2667295 15.80766675 17.441693 15.51943567 13 17 C10 16 10 16 8.875 14.0625 C5.87033636 10.75736999 2.32824072 10.75273752 -2 10 C-1.34 6.7 -0.68 3.4 0 0 Z " fill="#E39479" transform="translate(385,183)"/>
<path d="M0 0 C2.289375 1.11375 2.289375 1.11375 4.625 2.25 C11.2344244 5.27465184 17.97507516 7.16428971 25 9 C25 11.31 25 13.62 25 16 C16.75 16 8.5 16 0 16 C0 10.72 0 5.44 0 0 Z " fill="#F0E7D4" transform="translate(382,307)"/>
<path d="M0 0 C3.94727588 -0.17942163 6.5980513 -0.09350689 10 2 C10 3.32 10 4.64 10 6 C12.475 6.495 12.475 6.495 15 7 C13.68 11.62 12.36 16.24 11 21 C8.23307292 20.70703125 5.46614583 20.4140625 2.69921875 20.12109375 C-0.09930347 19.83397473 -0.09930347 19.83397473 -3 21 C-3 18.36 -3 15.72 -3 13 C-4.32 12.67 -5.64 12.34 -7 12 C-7 10.35 -7 8.7 -7 7 C-5.68 6.34 -4.36 5.68 -3 5 C-2.773125 5.94875 -2.54625 6.8975 -2.3125 7.875 C-1.30410773 11.13408416 -1.30410773 11.13408416 1.375 12.4375 C4.05970136 13.01279315 5.45545955 12.94242239 8 12 C8 11.67 8 11.34 8 11 C6.68 11.33 5.36 11.66 4 12 C4.66 10.68 5.32 9.36 6 8 C5.01 8 4.02 8 3 8 C2.67 8.99 2.34 9.98 2 11 C1.01 10.67 0.02 10.34 -1 10 C-1.125 2.25 -1.125 2.25 0 0 Z " fill="#C85B40" transform="translate(383,195)"/>
<path d="M0 0 C6.93 0 13.86 0 21 0 C21 3.96 21 7.92 21 12 C14.4 12 7.8 12 1 12 C0.67 8.04 0.34 4.08 0 0 Z " fill="#993727" transform="translate(234,309)"/>
<path d="M0 0 C0.33 0 0.66 0 1 0 C1 12.54 1 25.08 1 38 C1.99 38 2.98 38 4 38 C4.33 37.34 4.66 36.68 5 36 C5 36.66 5 37.32 5 38 C5.66 38 6.32 38 7 38 C7.12866176 46.73470423 6.76508013 55.29721349 6 64 C0.72 64 -4.56 64 -10 64 C-10 63.01 -10 62.02 -10 61 C-6.7 61.33 -3.4 61.66 0 62 C0 41.54 0 21.08 0 0 Z " fill="#392F58" transform="translate(400,328)"/>
<path d="M0 0 C3.73654172 0.80465131 7.19422782 2.17574885 10.75 3.5625 C12.50570313 4.24505859 12.50570313 4.24505859 14.296875 4.94140625 C15.18890625 5.29074219 16.0809375 5.64007813 17 6 C16.49202991 10.3177458 15.80317221 14.03302114 14 18 C8.27789404 16.13236819 2.62338249 14.14710968 -3 12 C-2.49202991 7.6822542 -1.80317221 3.96697886 0 0 Z " fill="#CD383A" transform="translate(408,354)"/>
<path d="M0 0 C0 1.65 0 3.3 0 5 C1.65 5 3.3 5 5 5 C5 8.3 5 11.6 5 15 C4.67 15 4.34 15 4 15 C3.67 12.36 3.34 9.72 3 7 C1.3514184 8.78920471 -0.29393121 10.5812005 -1.9375 12.375 C-2.40607422 12.88289063 -2.87464844 13.39078125 -3.35742188 13.9140625 C-5.97726768 16.74265854 -5.97726768 16.74265854 -8 20 C-8.66 20 -9.32 20 -10 20 C-10.83986084 18.06532058 -11.67168027 16.12714871 -12.5 14.1875 C-12.9640625 13.10855469 -13.428125 12.02960938 -13.90625 10.91796875 C-15 8 -15 8 -15 5 C-14.01 5 -13.02 5 -12 5 C-12 3.68 -12 2.36 -12 1 C-8.0186217 -0.3271261 -4.14954773 -0.06915913 0 0 Z " fill="#F2C4AC" transform="translate(405,245)"/>
<path d="M0 0 C0.99 0 1.98 0 3 0 C2.67 3.63 2.34 7.26 2 11 C3.98 11 5.96 11 8 11 C7.44747633 16.24897485 6.48283387 20.91599815 5 26 C4.26767253 28.80659017 3.57059962 31.62160968 2.875 34.4375 C2.60236328 35.53481445 2.60236328 35.53481445 2.32421875 36.65429688 C1.88172226 38.43592749 1.44070512 40.21792542 1 42 C0.67 42 0.34 42 0 42 C-0.02712066 40.56260487 -0.04645067 39.12506137 -0.0625 37.6875 C-0.07410156 36.88699219 -0.08570313 36.08648437 -0.09765625 35.26171875 C0 33 0 33 1 30 C-0.32 30.33 -1.64 30.66 -3 31 C-3.57014005 20.42073458 -1.82283831 10.37281803 0 0 Z " fill="#EA6C2C" transform="translate(410,304)"/>
<path d="M0 0 C5.42703093 4.26968139 11.01003828 8.74860728 12.63500977 15.72705078 C13.03255949 19.29196823 12.62818843 21.79808034 11.78515625 25.2734375 C11.51123047 26.42714844 11.23730469 27.58085937 10.95507812 28.76953125 C10.66052734 29.95933594 10.36597656 31.14914062 10.0625 32.375 C9.77181641 33.58800781 9.48113281 34.80101562 9.18164062 36.05078125 C8.46460386 39.03647533 7.7370999 42.0192074 7 45 C6.67 45 6.34 45 6 45 C5.95512451 44.21987549 5.91024902 43.43975098 5.86401367 42.63598633 C5.64989189 39.02738095 5.41877623 35.42004501 5.1875 31.8125 C5.08211914 29.97268555 5.08211914 29.97268555 4.97460938 28.09570312 C4.42753096 19.80199441 3.1087689 12.03529869 1 4 C0.6655978 2.66693434 0.33178768 1.3337188 0 0 Z " fill="#EB6E27" transform="translate(416,250)"/>
<path d="M0 0 C2.9375 1.3125 2.9375 1.3125 5 3 C5.33 3.99 5.66 4.98 6 6 C7.66611905 6.042721 9.33382885 6.04063832 11 6 C11.33 5.67 11.66 5.34 12 5 C18.46075316 5.21900858 21.47513961 6.3620181 26 11 C26 11.66 26 12.32 26 13 C28.475 13.99 28.475 13.99 31 15 C31 15.66 31 16.32 31 17 C30.07767578 16.93039063 30.07767578 16.93039063 29.13671875 16.859375 C26.70254825 16.75067201 24.42063598 16.70815027 22 17 C19.87644433 18.82271927 19.87644433 18.82271927 19 21 C12.375 20.25 12.375 20.25 9 18 C9.33 16.68 9.66 15.36 10 14 C10 14.99 10 15.98 10 17 C12.64 17.33 15.28 17.66 18 18 C19.64599355 15.72981832 19.64599355 15.72981832 21 13 C20.67 11.68 20.34 10.36 20 9 C17.36 8.34 14.72 7.68 12 7 C11.67 8.65 11.34 10.3 11 12 C10.5875 11.525625 10.175 11.05125 9.75 10.5625 C7.817815 8.83733482 6.51807725 8.43415125 4 8 C4 6.68 4 5.36 4 4 C0.7 3.34 -2.6 2.68 -6 2 C-6 5.3 -6 8.6 -6 12 C-5.34 12.33 -4.68 12.66 -4 13 C-3.67 11.35 -3.34 9.7 -3 8 C-2.67 8.66 -2.34 9.32 -2 10 C-1.01 9.67 -0.02 9.34 1 9 C0.34 10.32 -0.32 11.64 -1 13 C-0.34 13 0.32 13 1 13 C2.63676257 11.0399719 2.63676257 11.0399719 4 9 C3.25 13.75 3.25 13.75 1 16 C-2.3454582 15.81752046 -5.01065234 15.57445993 -7.9375 13.875 C-9.60500169 10.93234995 -9.24030011 8.30412652 -9 5 C-8.67 4.34 -8.34 3.68 -8 3 C-8.66 3 -9.32 3 -10 3 C-10 2.34 -10 1.68 -10 1 C-6.80839819 -0.5958009 -3.47279968 -0.37921376 0 0 Z " fill="#5A3D40" transform="translate(389,193)"/>
<path d="M0 0 C0.66 0.33 1.32 0.66 2 1 C1.7085034 10.29874157 1.1745801 19.22905131 -5.1875 26.5 C-11.88791962 30.07355713 -19.60263014 30.37358046 -27.0625 30.6875 C-27.90876953 30.73455078 -28.75503906 30.78160156 -29.62695312 30.83007812 C-34.89431956 31.07781086 -39.78745549 30.80146638 -45 30 C-44.505 28.515 -44.505 28.515 -44 27 C-43.33581055 26.98541748 -42.67162109 26.97083496 -41.98730469 26.95581055 C-22.98629091 27.88798839 -22.98629091 27.88798839 -6.2890625 21.29296875 C-2.25824175 15.01374221 -1.26550569 7.23293092 0 0 Z " fill="#861E1B" transform="translate(419,215)"/>
<path d="M0 0 C0.33 0 0.66 0 1 0 C1.10491204 15.71098091 1.09059699 31.32266822 0 47 C-5.28 47 -10.56 47 -16 47 C-15.67 46.01 -15.34 45.02 -15 44 C-12.03 44 -9.06 44 -6 44 C-6.03480469 43.23816406 -6.06960938 42.47632813 -6.10546875 41.69140625 C-6.30688593 34.00877969 -5.4438543 27.8877086 -2 21 C-1.76587077 18.55754071 -1.57984219 16.135319 -1.4375 13.6875 C-1.35371094 12.37136719 -1.26992188 11.05523437 -1.18359375 9.69921875 C-1.07422957 7.49564692 -1.00857644 5.28815519 -1.03515625 3.08203125 C-1 1 -1 1 0 0 Z " fill="#232855" transform="translate(388,345)"/>
<path d="M0 0 C18.34042553 -0.76595745 18.34042553 -0.76595745 27 4 C26.51178906 8.29625631 25.70705488 10.6615409 23 14 C22.45730469 13.57847656 21.91460937 13.15695312 21.35546875 12.72265625 C20.64003906 12.17480469 19.92460937 11.62695312 19.1875 11.0625 C18.12595703 10.24458984 18.12595703 10.24458984 17.04296875 9.41015625 C13.45184545 6.93138854 10.06438644 6.75753446 5.8125 6.4375 C4.72582031 6.35371094 3.63914062 6.26992188 2.51953125 6.18359375 C1.68808594 6.12300781 0.85664063 6.06242187 0 6 C0 4.02 0 2.04 0 0 Z " fill="#F4C0A7" transform="translate(412,308)"/>
<path d="M0 0 C1.2065625 0.0309375 1.2065625 0.0309375 2.4375 0.0625 C2.57024757 13.10126128 2.2055946 26.0460398 1.4375 39.0625 C-1.54656684 36.36204282 -3.1517966 34.29361463 -4.3125 30.4375 C-4.55484375 29.66148437 -4.7971875 28.88546875 -5.046875 28.0859375 C-5.5625 26.0625 -5.5625 26.0625 -5.5625 24.0625 C-3.9125 23.7325 -2.2625 23.4025 -0.5625 23.0625 C-1.2225 22.7325 -1.8825 22.4025 -2.5625 22.0625 C-2.5625 18.4325 -2.5625 14.8025 -2.5625 11.0625 C-2.8925 11.0625 -3.2225 11.0625 -3.5625 11.0625 C-3.58938151 9.41675434 -3.60884123 7.77088587 -3.625 6.125 C-3.63660156 5.20847656 -3.64820313 4.29195312 -3.66015625 3.34765625 C-3.52086326 0.08820018 -3.27895972 0.07997463 0 0 Z " fill="#F09A3A" transform="translate(382.5625,249.9375)"/>
<path d="M0 0 C-0.33 5.28 -0.66 10.56 -1 16 C-3.3925 16.04125 -5.785 16.0825 -8.25 16.125 C-8.99668945 16.14320801 -9.74337891 16.16141602 -10.51269531 16.18017578 C-14.19778057 16.21090134 -16.88201812 16.04115309 -20 14 C-17.96022417 12.41418022 -15.91826692 10.83131092 -13.875 9.25 C-13.30523437 8.8065625 -12.73546875 8.363125 -12.1484375 7.90625 C-1.91681985 0 -1.91681985 0 0 0 Z " fill="#963626" transform="translate(141,92)"/>
<path d="M0 0 C2.64 0.33 5.28 0.66 8 1 C8 1.66 8 2.32 8 3 C8.66 3 9.32 3 10 3 C10 3.99 10 4.98 10 6 C11.85625 6.3403125 11.85625 6.3403125 13.75 6.6875 C16.70420213 7.45747821 18.05406383 8.04325107 20.5 10 C22.69964259 14.39928518 22.73529675 18.17416893 22 23 C20.93212746 26.16051964 19.57563114 29.06388414 18 32 C17.67 32.66 17.34 33.32 17 34 C16.34 34 15.68 34 15 34 C15.10699219 32.84242188 15.21398437 31.68484375 15.32421875 30.4921875 C15.44621198 28.95319604 15.56725554 27.41412909 15.6875 25.875 C15.76033203 25.11445313 15.83316406 24.35390625 15.90820312 23.5703125 C16.27824614 18.52031364 15.81388354 15.40204731 13 11 C9.12074229 6.71239937 4.8030298 3.20201987 0 0 Z " fill="#851D1B" transform="translate(407,173)"/>
<path d="M0 0 C6.18160604 0.53753096 11.326858 2.54582388 17 5 C16.67 7.64 16.34 10.28 16 13 C9.50476013 11.76281145 3.94098468 9.89324549 -2 7 C-1.34 4.69 -0.68 2.38 0 0 Z " fill="#B29E8E" transform="translate(410,347)"/>
<path d="M0 0 C4.1261063 1.58696396 7.4388876 4.42676414 10 8 C10 11.62333737 9.03003935 12.95494097 7 16 C2.1725201 14.58707905 -1.7162359 12.57025846 -6 10 C-5.49477778 5.62140745 -2.82172778 3.18348776 0 0 Z " fill="#F3BB9B" transform="translate(445,252)"/>
<path d="M0 0 C0.99 0.495 0.99 0.495 2 1 C2.46832005 3.52219428 2.80418417 5.95394317 3.0625 8.5 C3.14483887 9.25015381 3.22717773 10.00030762 3.31201172 10.77319336 C4.15822947 18.83069445 4.61520774 26.90923641 5 35 C4.34 35 3.68 35 3 35 C3.020625 36.258125 3.04125 37.51625 3.0625 38.8125 C3.10886083 41.64051087 2.91692961 43.24921116 2 46 C1.34 46 0.68 46 0 46 C0 30.82 0 15.64 0 0 Z " fill="#F29B2D" transform="translate(418,261)"/>
<path d="M0 0 C0.99 0 1.98 0 3 0 C3.67301289 3.24871916 4.3372951 6.49916379 5 9.75 C5.19078125 10.67039062 5.3815625 11.59078125 5.578125 12.5390625 C5.75859375 13.42851562 5.9390625 14.31796875 6.125 15.234375 C6.29257812 16.05131836 6.46015625 16.86826172 6.6328125 17.70996094 C7 20 7 20 7 24 C5.02 24 3.04 24 1 24 C0.67 28.29 0.34 32.58 0 37 C-0.33 37 -0.66 37 -1 37 C-1.02935775 32.70834802 -1.04691802 28.41672236 -1.0625 24.125 C-1.07087891 22.92101562 -1.07925781 21.71703125 -1.08789062 20.4765625 C-1.10662365 13.58280854 -0.87608826 6.84079737 0 0 Z " fill="#EA692D" transform="translate(410,250)"/>
<path d="M0 0 C1.4763449 2.9526898 0.49487066 5.01132253 -0.32421875 8.109375 C-1.12502973 10.34979416 -2.26191954 11.41305697 -4 13 C-6.89386506 24.12267861 -5.45355609 37.33106411 -0.1875 47.5 C2.32380026 50.37005744 4.98737379 52.66367763 8 55 C8.94875 55.763125 9.8975 56.52625 10.875 57.3125 C11.57625 57.869375 12.2775 58.42625 13 59 C8.96880356 58.47327573 6.86267875 57.42327642 3.875 54.6875 C3.21242188 54.09324219 2.54984375 53.49898438 1.8671875 52.88671875 C0 51 0 51 -3 47 C-3.33 55.25 -3.66 63.5 -4 72 C-4.33 72 -4.66 72 -5 72 C-5.02505615 70.98574951 -5.0501123 69.97149902 -5.07592773 68.92651367 C-5.17009645 65.16368973 -5.27029405 61.40104631 -5.37231445 57.63842773 C-5.41562749 56.00988996 -5.45730518 54.38130784 -5.49731445 52.75268555 C-5.55510503 50.41181065 -5.61877398 48.07115824 -5.68359375 45.73046875 C-5.70030624 45.00224411 -5.71701874 44.27401947 -5.73423767 43.52372742 C-5.82467238 40.43833061 -6.01723993 37.94828022 -7 35 C-8.10104029 22.54685465 -8.06932276 10.17335821 0 0 Z " fill="#CE5228" transform="translate(377,251)"/>
<path d="M0 0 C2.475 0.99 2.475 0.99 5 2 C5.10826289 4.4178712 5.18739789 6.83087556 5.25 9.25 C5.30027344 10.27287109 5.30027344 10.27287109 5.3515625 11.31640625 C5.41899298 14.78907596 5.25550499 16.65277528 3.171875 19.484375 C1 21 1 21 -2 21 C-4.64164737 15.87209629 -3.89410108 11.95053356 -2.2578125 6.55078125 C-1.53413187 4.35561668 -0.78392645 2.17428657 0 0 Z " fill="#EA9774" transform="translate(453,224)"/>
<path d="M0 0 C1.65 0 3.3 0 5 0 C5.86555948 2.09950586 6.71711277 4.2047907 7.5625 6.3125 C8.03816406 7.48425781 8.51382812 8.65601563 9.00390625 9.86328125 C10 13 10 13 9 16 C7.68 15.67 6.36 15.34 5 15 C4.360625 15.99 3.72125 16.98 3.0625 18 C2.381875 18.99 1.70125 19.98 1 21 C0.67 21 0.34 21 0 21 C0 14.07 0 7.14 0 0 Z " fill="#F5EBD4" transform="translate(385,250)"/>
<path d="M0 0 C0.66 0 1.32 0 2 0 C2.99 2.97 3.98 5.94 5 9 C9.29 9.33 13.58 9.66 18 10 C18.33 9.34 18.66 8.68 19 8 C19 8.99 19 9.98 19 11 C15.55389094 12.72305453 11.77537825 12.379435 8 12 C4.4375 10.5 4.4375 10.5 2 9 C2 10.32 2 11.64 2 13 C0.68 13.33 -0.64 13.66 -2 14 C-2.66 13.01 -3.32 12.02 -4 11 C-6.31847874 10.2833793 -8.65319703 9.61757973 -11 9 C-11.99 8.34 -12.98 7.68 -14 7 C-12.205625 7.2165625 -12.205625 7.2165625 -10.375 7.4375 C-7.51377954 7.4730116 -6.39277415 7.34068888 -4.203125 5.44140625 C-3.16988589 4.17031754 -2.17515477 2.86669834 -1.2265625 1.53125 C-0.82179688 1.0259375 -0.41703125 0.520625 0 0 Z " fill="#8A2219" transform="translate(391,217)"/>
<path d="M0 0 C2 2 2 2 2 5 C4.99332739 4.0022242 5.94766315 3.2477975 8 1 C7 7 6 13 5 19 C3.85373678 18.02133662 2.70800212 17.04205413 1.5625 16.0625 C0.92441406 15.51722656 0.28632813 14.97195312 -0.37109375 14.41015625 C-1.26991149 13.63204305 -2.15936528 12.84063472 -3 12 C-2.94921875 10.0390625 -2.94921875 10.0390625 -2.6875 7.625 C-2.60886719 6.83351562 -2.53023438 6.04203125 -2.44921875 5.2265625 C-2 3 -2 3 0 0 Z " fill="#EB9B26" transform="translate(449,240)"/>
<path d="M0 0 C6.06892629 -0.25287193 11.16200408 0.30167391 17 2 C17 2.99 17 3.98 17 5 C14.69 4.34 12.38 3.68 10 3 C9.67 4.32 9.34 5.64 9 7 C9.99 7.33 10.98 7.66 12 8 C4.375 10.125 4.375 10.125 1 9 C0.54625 8.360625 0.0925 7.72125 -0.375 7.0625 C-2.33307647 4.57724909 -4.03252131 3.96242552 -7 3 C-3.86650268 1.95550089 -3.01031744 2.06576355 0 3 C0 2.01 0 1.02 0 0 Z " fill="#EEBFAA" transform="translate(394,190)"/>
<path d="M0 0 C0.33 0 0.66 0 1 0 C1 5.94 1 11.88 1 18 C-6.875 16.875 -6.875 16.875 -10 13 C-8.35790421 10.83040701 -6.71157832 8.66427468 -5.0625 6.5 C-4.59392578 5.87996094 -4.12535156 5.25992188 -3.64257812 4.62109375 C-2.45209536 3.06233214 -1.22858708 1.52890836 0 0 Z " fill="#442E35" transform="translate(457,207)"/>
<path d="M0 0 C0.33 0 0.66 0 1 0 C1.15498126 10.71092709 0.67842194 21.31485445 0 32 C-5.28 32 -10.56 32 -16 32 C-15.505 30.515 -15.505 30.515 -15 29 C-12.03 29 -9.06 29 -6 29 C-6 26.69 -6 24.38 -6 22 C-5.67 22.99 -5.34 23.98 -5 25 C-3.68 25 -2.36 25 -1 25 C-1.01160156 24.20078125 -1.02320313 23.4015625 -1.03515625 22.578125 C-1.09748443 14.99189461 -0.76154197 7.54742488 0 0 Z " fill="#463441" transform="translate(388,360)"/>
<path d="M0 0 C0.33 0 0.66 0 1 0 C0.67 4.29 0.34 8.58 0 13 C0.99 13.33 1.98 13.66 3 14 C3 14.33 3 14.66 3 15 C1.02 15 -0.96 15 -3 15 C-0.13698853 25.53107714 5.2630872 33.24473187 14.5625 39.125 C16.2640625 40.053125 16.2640625 40.053125 18 41 C15 42 15 42 12.984375 41.06640625 C5.12105326 35.77378585 -2.00849267 29.66786286 -4 20 C-4.48464242 15.20047669 -4.72882429 12.09323644 -2 8 C-1.33841957 5.95415921 -1.33841957 5.95415921 -0.875 3.8125 C-0.58625 2.554375 -0.2975 1.29625 0 0 Z " fill="#D25314" transform="translate(380,259)"/>
<path d="M0 0 C0.18451025 12.66970387 0.18451025 12.66970387 -1 18 C-2.65 18 -4.3 18 -6 18 C-6 12.39 -6 6.78 -6 1 C-4 0 -4 0 0 0 Z " fill="#272C60" transform="translate(407,367)"/>
<path d="M0 0 C2.96175123 0.61277612 4.38058783 1.25372522 7 3 C6.34 6.3 5.68 9.6 5 13 C1.37673261 14.2077558 0.35853631 13.54311128 -3 12 C-2.49202991 7.6822542 -1.80317221 3.96697886 0 0 Z " fill="#E55758" transform="translate(408,354)"/>
<path d="M0 0 C0.556875 0.268125 1.11375 0.53625 1.6875 0.8125 C1.13604729 6.05130078 0.25827907 10.78600697 -1.3125 15.8125 C-2.9625 15.8125 -4.6125 15.8125 -6.3125 15.8125 C-6.291875 14.925625 -6.27125 14.03875 -6.25 13.125 C-6.15405854 9.89089837 -6.15405854 9.89089837 -7.125 7.25 C-7.3125 4.8125 -7.3125 4.8125 -5.125 1.9375 C-2.3125 -0.1875 -2.3125 -0.1875 0 0 Z " fill="#E28B6F" transform="translate(413.3125,209.1875)"/>
<path d="M0 0 C3.94727588 -0.17942163 6.5980513 -0.09350689 10 2 C9.25 8.625 9.25 8.625 7 12 C6.01 11.67 5.02 11.34 4 11 C4.66 10.01 5.32 9.02 6 8 C5.01 8 4.02 8 3 8 C2.67 8.99 2.34 9.98 2 11 C1.01 10.67 0.02 10.34 -1 10 C-1.125 2.25 -1.125 2.25 0 0 Z " fill="#EABEAB" transform="translate(383,195)"/>
<path d="M0 0 C8.25 0 16.5 0 25 0 C25.33 4.29 25.66 8.58 26 13 C25.34 13 24.68 13 24 13 C24 9.04 24 5.08 24 1 C19.38 1 14.76 1 10 1 C10 1.99 10 2.98 10 4 C12.64 4 15.28 4 18 4 C18 4.33 18 4.66 18 5 C12.06 5 6.12 5 0 5 C0 3.35 0 1.7 0 0 Z " fill="#363569" transform="translate(382,323)"/>
<path d="M0 0 C0.33 0 0.66 0 1 0 C1.020625 1.258125 1.04125 2.51625 1.0625 3.8125 C1.2377535 6.0296942 1.2377535 6.0296942 2 8 C5.40663508 9.74570339 5.40663508 9.74570339 9 11 C11.0197356 14.33695447 11.22008532 17.14850685 11 21 C6.92205279 19.64068426 5.95752928 17.23178733 3.6953125 13.71484375 C2.0830977 11.71575449 2.0830977 11.71575449 -0.6953125 11.75390625 C-1.83613281 11.87572266 -1.83613281 11.87572266 -3 12 C-2.68950274 10.56206608 -2.3765224 9.1246682 -2.0625 7.6875 C-1.88847656 6.88699219 -1.71445312 6.08648437 -1.53515625 5.26171875 C-1 3 -1 3 0 0 Z " fill="#EEB9A3" transform="translate(397,203)"/>
<path d="M0 0 C0.8971875 0.5259375 0.8971875 0.5259375 1.8125 1.0625 C1.26526317 4.43712715 0.7576 6.14485 -1.1875 9.0625 C-6.87030467 7.58002922 -6.87030467 7.58002922 -8.375 5.125 C-8.643125 4.444375 -8.91125 3.76375 -9.1875 3.0625 C-10.7287312 1.35328411 -10.7287312 1.35328411 -12.1875 0.0625 C-7.4375 0.9375 -7.4375 0.9375 -5.1875 2.0625 C-5.1875 1.4025 -5.1875 0.7425 -5.1875 0.0625 C-2.1875 -0.9375 -2.1875 -0.9375 0 0 Z " fill="#F0BFA7" transform="translate(453.1875,258.9375)"/>
<path d="M0 0 C0.66 0 1.32 0 2 0 C2.226875 0.94875 2.45375 1.8975 2.6875 2.875 C3.69083714 6.19323388 3.69083714 6.19323388 6.625 7.375 C7.40875 7.58125 8.1925 7.7875 9 8 C8.67 8.99 8.34 9.98 8 11 C7.34 11 6.68 11 6 11 C5.896875 11.639375 5.79375 12.27875 5.6875 12.9375 C5.460625 13.618125 5.23375 14.29875 5 15 C4.01 15.33 3.02 15.66 2 16 C2 13.36 2 10.72 2 8 C0.68 7.67 -0.64 7.34 -2 7 C-2.125 4.625 -2.125 4.625 -2 2 C-1.34 1.34 -0.68 0.68 0 0 Z " fill="#E8AD97" transform="translate(378,200)"/>
<path d="M0 0 C0.99 0.66 1.98 1.32 3 2 C3 2.66 3 3.32 3 4 C4.65 4.66 6.3 5.32 8 6 C8 6.66 8 7.32 8 8 C7.07767578 7.93039063 7.07767578 7.93039063 6.13671875 7.859375 C3.70254825 7.75067201 1.42063598 7.70815027 -1 8 C-3.12355567 9.82271927 -3.12355567 9.82271927 -4 12 C-10.625 11.25 -10.625 11.25 -14 9 C-13.67 7.68 -13.34 6.36 -13 5 C-13 5.99 -13 6.98 -13 8 C-10.36 8.33 -7.72 8.66 -5 9 C-3.35 6.03 -1.7 3.06 0 0 Z " fill="#4B2F33" transform="translate(412,202)"/>
<path d="M0 0 C0 2.31 0 4.62 0 7 C-5.28 7 -10.56 7 -16 7 C-16 6.01 -16 5.02 -16 4 C-12.7 4.33 -9.4 4.66 -6 5 C-6 3.68 -6 2.36 -6 1 C-1.125 0 -1.125 0 0 0 Z " fill="#43353D" transform="translate(406,385)"/>
<path d="M0 0 C2.31 0.33 4.62 0.66 7 1 C6.67 3.31 6.34 5.62 6 8 C3.39417629 8.93065133 2.35801776 9.14917407 -0.25 8.0625 C-0.8275 7.711875 -1.405 7.36125 -2 7 C-1.34 4.69 -0.68 2.38 0 0 Z " fill="#D7CFBB" transform="translate(410,347)"/>
<path d="M0 0 C1.89213369 2.38573379 3.02391783 4.07175348 4 7 C3.34 7 2.68 7 2 7 C2 8.32 2 9.64 2 11 C0.68 11.33 -0.64 11.66 -2 12 C-2.66 11.01 -3.32 10.02 -4 9 C-7.06556598 8.26656572 -7.06556598 8.26656572 -10 8 C-10 7.67 -10 7.34 -10 7 C-8.906875 6.773125 -7.81375 6.54625 -6.6875 6.3125 C-2.87511789 5.34252805 -2.87511789 5.34252805 -1.0625 2.375 C-0.711875 1.59125 -0.36125 0.8075 0 0 Z " fill="#822F24" transform="translate(391,219)"/>
<path d="M0 0 C4.55555556 0.55555556 4.55555556 0.55555556 6 2 C6.125 4.5 6.125 4.5 6 7 C5 8 5 8 1.9375 8.0625 C0.968125 8.041875 -0.00125 8.02125 -1 8 C-1.625 5.125 -1.625 5.125 -2 2 C-1.34 1.34 -0.68 0.68 0 0 Z " fill="#E68E71" transform="translate(421,208)"/>
<path d="M0 0 C1.98 0 3.96 0 6 0 C6 4.62 6 9.24 6 14 C1.5 8.375 1.5 8.375 0.75 4.1875 C0.60046875 3.39730469 0.4509375 2.60710937 0.296875 1.79296875 C0.19890625 1.20128906 0.1009375 0.60960937 0 0 Z " fill="#F2872A" transform="translate(377,274)"/>
<path d="M0 0 C3.375 -0.125 3.375 -0.125 7 0 C7.66 0.66 8.32 1.32 9 2 C8.69670231 5.84177074 7.47524576 8.09427672 5 11 C4.01 10.67 3.02 10.34 2 10 C2.66 8.02 3.32 6.04 4 4 C3.01 4.495 3.01 4.495 2 5 C2 4.01 2 3.02 2 2 C1.34 2 0.68 2 0 2 C0 1.34 0 0.68 0 0 Z " fill="#E6BAA7" transform="translate(402,201)"/>
<path d="M0 0 C2 2 2 2 2.5 4.5625 C2.665 5.366875 2.83 6.17125 3 7 C3.66 7.33 4.32 7.66 5 8 C5.33 6.35 5.66 4.7 6 3 C6.33 3.66 6.66 4.32 7 5 C7.99 4.67 8.98 4.34 10 4 C9.34 5.32 8.68 6.64 8 8 C8.66 8 9.32 8 10 8 C11.63676257 6.0399719 11.63676257 6.0399719 13 4 C12.25 8.75 12.25 8.75 10 11 C6.6545418 10.81752046 3.98934766 10.57445993 1.0625 8.875 C-0.58420065 5.96905769 -0.18462917 3.26178195 0 0 Z " fill="#6A413E" transform="translate(380,198)"/>
<path d="M0 0 C0.70125 0.721875 1.4025 1.44375 2.125 2.1875 C4.92770745 4.99823813 7.92262792 7.49516226 11 10 C7.52128379 11.15957207 6.65780355 10.77456651 3.3125 9.5625 C2.50425781 9.27503906 1.69601562 8.98757812 0.86328125 8.69140625 C0.24839844 8.46324219 -0.36648438 8.23507813 -1 8 C-0.67 5.36 -0.34 2.72 0 0 Z " fill="#9B4333" transform="translate(414,112)"/>
<path d="M0 0 C3.70488428 0.92622107 5.16604069 1.67210485 8 4 C6.02 4.99 4.04 5.98 2 7 C2 7.99 2 8.98 2 10 C0.68 10 -0.64 10 -2 10 C-1.34 6.7 -0.68 3.4 0 0 Z " fill="#DF9279" transform="translate(385,183)"/>
<path d="M0 0 C0 0.33 0 0.66 0 1 C-2.31 1 -4.62 1 -7 1 C-7 2.32 -7 3.64 -7 5 C-9.64 4.67 -12.28 4.34 -15 4 C-14 1 -14 1 -11.4375 -0.8125 C-6.80238918 -2.4137201 -4.59917625 -1.5066267 0 0 Z " fill="#D68064" transform="translate(401,188)"/>
<path d="M0 0 C1.65 0 3.3 0 5 0 C6 2 6 2 5.3125 5.0625 C4 8 4 8 2.125 8.75 C1.073125 8.87375 1.073125 8.87375 0 9 C-1.3479743 9.63654342 -2.68596724 10.29605388 -4 11 C-2.95833333 9.30729167 -1.91666667 7.61458333 -0.875 5.921875 C0.27624023 3.74520615 0.27624023 3.74520615 0 0 Z " fill="#CF735B" transform="translate(392,201)"/>
<path d="M0 0 C0.99 0.33 1.98 0.66 3 1 C3 2.32 3 3.64 3 5 C3.66 5 4.32 5 5 5 C5.66 3.35 6.32 1.7 7 0 C8.21386936 3.64160808 7.6674695 4.33165469 6.0625 7.6875 C5.68222656 8.49574219 5.30195313 9.30398438 4.91015625 10.13671875 C4.60980469 10.75160156 4.30945313 11.36648438 4 12 C1.68796073 9.68796073 1.72724909 9.06785625 1.5 5.9375 C1.335 4.638125 1.17 3.33875 1 2 C0.34 1.67 -0.32 1.34 -1 1 C-0.67 0.67 -0.34 0.34 0 0 Z " fill="#D6CBB9" transform="translate(401,261)"/>
<path d="M0 0 C0.99 0 1.98 0 3 0 C3.33 6.6 3.66 13.2 4 20 C2.08437709 17.12656563 1.70789101 16.22496459 1.3671875 12.98828125 C1.28339844 12.23095703 1.19960938 11.47363281 1.11328125 10.69335938 C1.03464844 9.90767578 0.95601563 9.12199219 0.875 8.3125 C0.78863281 7.51521484 0.70226562 6.71792969 0.61328125 5.89648438 C0.40151528 3.93176674 0.19978527 1.96597204 0 0 Z " fill="#EF7728" transform="translate(413,250)"/>
<path d="M0 0 C0.99 0 1.98 0 3 0 C2.48041715 4.37934119 1.94324258 8.68803391 1 13 C0.01 13 -0.98 13 -2 13 C-1.34 8.71 -0.68 4.42 0 0 Z " fill="#C54A11" transform="translate(410,304)"/>
<path d="M0 0 C0.4125 0.37511719 0.825 0.75023437 1.25 1.13671875 C5.56213158 4.95796035 10.03440438 8.08513088 15 11 C14.01 11.33 13.02 11.66 12 12 C9.84375 10.890625 9.84375 10.890625 7.5 9.25 C6.7265625 8.71890625 5.953125 8.1878125 5.15625 7.640625 C3.23515337 6.17892104 1.53122968 4.86495923 0 3 C0 2.01 0 1.02 0 0 Z " fill="#C55828" transform="translate(383,289)"/>
<path d="M0 0 C1.4763449 2.9526898 0.49487066 5.01132253 -0.32421875 8.109375 C-1.12502973 10.34979416 -2.26191954 11.41305697 -4 13 C-4.72197162 15.60611077 -4.72197162 15.60611077 -5 18 C-5.33 18 -5.66 18 -6 18 C-6.70405924 11.13542244 -3.71802894 5.5770434 0 0 Z " fill="#DF5B2E" transform="translate(377,251)"/>
<path d="M0 0 C0.33 0.66 0.66 1.32 1 2 C0.65066406 2.48210937 0.30132812 2.96421875 -0.05859375 3.4609375 C-0.51363281 4.09257812 -0.96867187 4.72421875 -1.4375 5.375 C-1.88996094 6.00148438 -2.34242188 6.62796875 -2.80859375 7.2734375 C-4.05530717 8.99402639 -4.05530717 8.99402639 -5 11 C-6 12 -6 12 -9 14 C-9.66 14 -10.32 14 -11 14 C-9.42219077 10.28954753 -7.09296752 7.70093616 -4.375 4.75 C-3.55773437 3.85796875 -2.74046875 2.9659375 -1.8984375 2.046875 C-1.27195312 1.37140625 -0.64546875 0.6959375 0 0 Z " fill="#F7E7D3" transform="translate(408,251)"/>
<path d="M0 0 C1.98 1.65 3.96 3.3 6 5 C4 6 4 6 2 6 C2.66 7.32 3.32 8.64 4 10 C-0.75 8.125 -0.75 8.125 -3 7 C-2.38722388 4.03824877 -1.74627478 2.61941217 0 0 Z " fill="#EFB286" transform="translate(442,255)"/>
<path d="M0 0 C0.66 0 1.32 0 2 0 C4.38017635 4.48033196 4.18287375 8.20172988 3 13 C2.34 14.32 1.68 15.64 1 17 C0.67 11.39 0.34 5.78 0 0 Z " fill="#A14328" transform="translate(421,278)"/>
<path d="M0 0 C0.66 0 1.32 0 2 0 C2.66 2.31 3.32 4.62 4 7 C2.34385343 7.38218767 0.67542976 7.71395102 -1 8 C-2 7 -2 7 -2.1875 4.5625 C-2 2 -2 2 0 0 Z " fill="#DE8F74" transform="translate(378,200)"/>
<path d="M0 0 C1.98 0.66 3.96 1.32 6 2 C5.67 3.98 5.34 5.96 5 8 C1.535 6.02 1.535 6.02 -2 4 C-1.34 2.68 -0.68 1.36 0 0 Z " fill="#E8A88C" transform="translate(433,310)"/>
<path d="M0 0 C0 0.66 0 1.32 0 2 C-3.96 2.66 -7.92 3.32 -12 4 C-12 3.01 -12 2.02 -12 1 C-8.0186217 -0.3271261 -4.14954773 -0.06915913 0 0 Z " fill="#E99276" transform="translate(405,245)"/>
<path d="M0 0 C7.39449541 0.59633028 7.39449541 0.59633028 11 3 C10.67 4.32 10.34 5.64 10 7 C9.46375 6.360625 8.9275 5.72125 8.375 5.0625 C5.55632807 2.61470596 3.66139268 2.33285388 0 2 C-0.33 2.66 -0.66 3.32 -1 4 C-1 1 -1 1 0 0 Z " fill="#604444" transform="translate(401,198)"/>
<path d="M0 0 C2.375 0.25 2.375 0.25 5 1 C6.3125 3.0625 6.3125 3.0625 7 5 C4.36 4.67 1.72 4.34 -1 4 C-0.67 2.68 -0.34 1.36 0 0 Z " fill="#A44933" transform="translate(404,193)"/>
<path d="M0 0 C0.66 0 1.32 0 2 0 C0.74194623 4.50802601 -0.90407165 7.4912812 -4 11 C-4 8.36 -4 5.72 -4 3 C-3.01 2.67 -2.02 2.34 -1 2 C-0.67 1.34 -0.34 0.68 0 0 Z " fill="#D6C9B9" transform="translate(389,260)"/>
<path d="M0 0 C0.66 0 1.32 0 2 0 C3.19287411 3.87684087 4 6.91621923 4 11 C2.68 10.34 1.36 9.68 0 9 C0.66 9 1.32 9 2 9 C1.34 8.01 0.68 7.02 0 6 C-0.125 2.8125 -0.125 2.8125 0 0 Z " fill="#B64D35" transform="translate(385,173)"/>
<path d="M0 0 C3.63 0 7.26 0 11 0 C11 0.99 11 1.98 11 3 C4.9453125 3.1953125 4.9453125 3.1953125 3 3 C2.34 2.34 1.68 1.68 1 1 C0.67 1.99 0.34 2.98 0 4 C0 2.68 0 1.36 0 0 Z " fill="#E1DDDB" transform="translate(388,386)"/>
<path d="M0 0 C0.21192221 5.19209404 -0.4087311 9.126739 -2 14 C-2.33 14 -2.66 14 -3 14 C-3 9.71 -3 5.42 -3 1 C-1 0 -1 0 0 0 Z " fill="#863E30" transform="translate(413,332)"/>
<path d="M0 0 C4.75 1.875 4.75 1.875 7 3 C6.34 4.32 5.68 5.64 5 7 C3.29115995 5.37660195 1.62553283 3.70680947 0 2 C0 1.34 0 0.68 0 0 Z " fill="#EEB39E" transform="translate(430,315)"/>
<path d="M0 0 C1.95216435 3.90432869 2.50639991 6.72213252 3 11 C1.02 11 -0.96 11 -3 11 C-2.67 10.34 -2.34 9.68 -2 9 C-1.01 9 -0.02 9 1 9 C0.67 6.03 0.34 3.06 0 0 Z " fill="#CD4F11" transform="translate(414,263)"/>
<path d="M0 0 C2.5654594 2.5654594 2.54046087 4.47686668 3 8 C1 8 -1 8 -3 8 C-2.67 7.01 -2.34 6.02 -2 5 C-1.34 5 -0.68 5 0 5 C0 3.35 0 1.7 0 0 Z " fill="#F0E1CE" transform="translate(392,257)"/>
<path d="M0 0 C0.33 0.99 0.66 1.98 1 3 C3.97 3.33 6.94 3.66 10 4 C10 4.99 10 5.98 10 7 C3.375 6.25 3.375 6.25 0 4 C0 2.68 0 1.36 0 0 Z " fill="#6F504E" transform="translate(398,207)"/>
<path d="M0 0 C1.98 0 3.96 0 6 0 C6 0.99 6 1.98 6 3 C3.69 3 1.38 3 -1 3 C-0.67 2.01 -0.34 1.02 0 0 Z " fill="#9D3C27" transform="translate(387,189)"/>
<path d="M0 0 C1.65 0 3.3 0 5 0 C4.67 0.99 4.34 1.98 4 3 C3.34 3 2.68 3 2 3 C1.67 3.99 1.34 4.98 1 6 C0 5 0 5 -0.0625 2.4375 C-0.041875 1.633125 -0.02125 0.82875 0 0 Z " fill="#DA826E" transform="translate(382,208)"/>
<path d="M0 0 C1.98 0 3.96 0 6 0 C6 0.99 6 1.98 6 3 C4.02 3.99 4.02 3.99 2 5 C2 4.01 2 3.02 2 2 C1.34 2 0.68 2 0 2 C0 1.34 0 0.68 0 0 Z " fill="#F2C6B0" transform="translate(402,201)"/>
<path d="M0 0 C0.33 1.32 0.66 2.64 1 4 C1.66 4 2.32 4 3 4 C3 5.65 3 7.3 3 9 C2.01 8.67 1.02 8.34 0 8 C0 5.36 0 2.72 0 0 Z " fill="#E0B6A5" transform="translate(382,197)"/>
<path d="M0 0 C2.97 0 5.94 0 9 0 C9 0.99 9 1.98 9 3 C7.68 3 6.36 3 5 3 C5 2.34 5 1.68 5 1 C3.35 1 1.7 1 0 1 C0 0.67 0 0.34 0 0 Z " fill="#E2D2CD" transform="translate(373,386)"/>
<path d="M0 0 C0.99 0.33 1.98 0.66 3 1 C1.57053468 3.85893064 0.86255948 4.09162701 -2 6 C-2.66 6 -3.32 6 -4 6 C-2.84826645 3.53199953 -1.95216435 1.95216435 0 0 Z " fill="#EFDFCB" transform="translate(401,259)"/>
<path d="M0 0 C0.33 0.66 0.66 1.32 1 2 C1.99 1.67 2.98 1.34 4 1 C3.1875 2.9375 3.1875 2.9375 2 5 C1.01 5.33 0.02 5.66 -1 6 C-0.67 4.02 -0.34 2.04 0 0 Z " fill="#7B5D5A" transform="translate(386,201)"/>
<path d="M0 0 C2.31 0.33 4.62 0.66 7 1 C7 1.99 7 2.98 7 4 C4.69 3.34 2.38 2.68 0 2 C0 1.34 0 0.68 0 0 Z " fill="#EFB39A" transform="translate(404,191)"/>
</svg>
